<svg class="diagram-root" style="background: #f5f6f6" xmlns="http://www.w3.org/2000/svg" xmlns:xlink="http://www.w3.org/1999/xlink"><style>.diagram-root { font-family: "Helvetica Neue", sans-serif; font-size: 12px; } .t { overflow: visible; } .t-bg { y: 40; fill: #fff;   } .th { fill: #005aa0;   } .tht { fill: #fff; font-size: 14px;  } .tf { fill: #323c46; overflow: visible; } .tf.pk { fill: #005aa0; font-weight: bold; } .tf.fk { font-weight: bold; } .ty { fill: #adb1b5; font-weight: normal; text-anchor: end; } .r { fill: transparent; stroke: #c3c3c3; stroke-width: 1; } .l { stroke: 1; } .i { fill: #c2c7ce; stroke: #c2c7ce; } .i.ix { fill: #afb3b6; stroke: #000; } .fa { fill: transparent; overflow: visible; } .fa .bg.hover { fill: #f7f7f7; } .c { cy: 12; r: 4; stroke: #d2d2dc; fill: #d2d2dc; } .hr { fill: transparent; stroke: #323c46; stroke-opacity: 0.035; stroke-width: 13; } .dc { stroke: #fa5a3c; fill: #fa5a3c; } .x { stroke: white; stroke-width: 1; } .hl .th { fill: #1b9bff; } .hl .tht {  } .fhl .bg { fill: #e7f4ff; } .fhls .bg {  } .r.hl { stroke: #1b9bff; } .dim { opacity: 0.25; }</style><g class="drawing-wrapper" transform="translate(236, 18) scale(1,1)"><g class="rs"><path d="M -71.96 117 m -1, 0 a 1,1 0 1,0 2,0 a 1,1 0 1,0 -2,0 M -71.96 117 m -0.5, 0 a 0.5,0.5 0 1,0 1,0 a 0.5,0.5 0 1,0 -1,0  M-71.96 117 L-71.96 117 -59.959999999999994 117 M-65.96 123 L-65.96 123 -65.96 111 M-59.959999999999994 117 Q -40.47 117, -20.98 114.5 T 18 112 M 30 112 m -1, 0 a 1,1 0 1,0 2,0 a 1,1 0 1,0 -2,0 M 30 112 m -0.5, 0 a 0.5,0.5 0 1,0 1,0 a 0.5,0.5 0 1,0 -1,0  M30 112 L30 112 18 112 M24 118 L24 118 24 106" id="h1551876105" class="r"></path><path d="M 466 524 m -1, 0 a 1,1 0 1,0 2,0 a 1,1 0 1,0 -2,0 M 466 524 m -0.5, 0 a 0.5,0.5 0 1,0 1,0 a 0.5,0.5 0 1,0 -1,0  M466 524 L466 524 454 524 M460 530 L460 530 460 518 M454 524 Q 393.85 524, 333.7 468 T 213.4 412 M 201.4 412 m -1, 0 a 1,1 0 1,0 2,0 a 1,1 0 1,0 -2,0 M 201.4 412 m -0.5, 0 a 0.5,0.5 0 1,0 1,0 a 0.5,0.5 0 1,0 -1,0  M201.4 412 L201.4 412 213.4 412 M 201.4 418 m -1, 0 a 1,1 0 1,0 2,0 a 1,1 0 1,0 -2,0 M 201.4 418 m -0.5, 0 a 0.5,0.5 0 1,0 1,0 a 0.5,0.5 0 1,0 -1,0  M201.4 418 L201.4 418 208.4 412 201.4 406 M 201.4 406 m -1, 0 a 1,1 0 1,0 2,0 a 1,1 0 1,0 -2,0 M 201.4 406 m -0.5, 0 a 0.5,0.5 0 1,0 1,0 a 0.5,0.5 0 1,0 -1,0 " id="h2160959089" class="r"></path><path d="M 463 280 m -1, 0 a 1,1 0 1,0 2,0 a 1,1 0 1,0 -2,0 M 463 280 m -0.5, 0 a 0.5,0.5 0 1,0 1,0 a 0.5,0.5 0 1,0 -1,0  M463 280 L463 280 451 280 M457 286 L457 286 457 274 M451 280 Q 391.6 280, 332.2 333.5 T 213.4 387 M 201.4 387 m -1, 0 a 1,1 0 1,0 2,0 a 1,1 0 1,0 -2,0 M 201.4 387 m -0.5, 0 a 0.5,0.5 0 1,0 1,0 a 0.5,0.5 0 1,0 -1,0  M201.4 387 L201.4 387 213.4 387 M 201.4 393 m -1, 0 a 1,1 0 1,0 2,0 a 1,1 0 1,0 -2,0 M 201.4 393 m -0.5, 0 a 0.5,0.5 0 1,0 1,0 a 0.5,0.5 0 1,0 -1,0  M201.4 393 L201.4 393 208.4 387 201.4 381 M 201.4 381 m -1, 0 a 1,1 0 1,0 2,0 a 1,1 0 1,0 -2,0 M 201.4 381 m -0.5, 0 a 0.5,0.5 0 1,0 1,0 a 0.5,0.5 0 1,0 -1,0 " id="h1192274695" class="r"></path></g><g class="hrs"></g><g class="ts"><svg width="142.04" height="150" x="-214" y="60" id="h3053083911" class="t"><rect height="40" width="142.04" class="th"></rect><text x="13" y="25" class="tht">contacts_db</text><rect height="110" width="142.04" class="t-bg"></rect><text x="13" y="61" class="tf pk">contact_id<tspan x="129.04" class="ty">int</tspan></text><path d="M7,14A2,2 0 0,1 5,12A2,2 0 0,1 7,10A2,2 0 0,1 9,12A2,2 0 0,1 7,14M12.65,10C11.83,7.67 9.61,6 7, 6A6, 6 0 0, 0 1, 12A6, 6 0 0, 0 7, 18C9.61, 18 11.83, 16.33 12.65, 14H17V18H21V14H23V10H12.65Z" class="i pk" transform="translate(96.36617187499999, 48) scale(0.65)"></path><text x="13" y="86" class="tf">first_name<tspan x="129.04" class="ty">varchar</tspan></text><text x="13" y="111" class="tf">last_name<tspan x="129.04" class="ty">varchar</tspan></text><text x="13" y="136" class="tf">email<tspan x="129.04" class="ty">varchar</tspan></text></svg><svg width="171.4" height="400" x="30" y="30" id="h243529445" class="t"><rect height="40" width="171.4" class="th"></rect><text x="13" y="25" class="tht">campaign_db</text><rect height="360" width="171.4" class="t-bg"></rect><text x="13" y="61" class="tf">cf_id<tspan x="158.4" class="ty">int</tspan></text><text x="13" y="86" class="tf fk">contact_id<tspan x="158.4" class="ty">int</tspan></text><text x="13" y="111" class="tf">company_name<tspan x="158.4" class="ty">varchar</tspan></text><text x="13" y="136" class="tf">description<tspan x="158.4" class="ty">varchar</tspan></text><text x="13" y="161" class="tf">goal<tspan x="158.4" class="ty">varchar</tspan></text><text x="13" y="186" class="tf">pledged<tspan x="158.4" class="ty">varchar</tspan></text><text x="13" y="211" class="tf">outcome<tspan x="158.4" class="ty">varchar</tspan></text><text x="13" y="236" class="tf">backers_count<tspan x="158.4" class="ty">varchar</tspan></text><text x="13" y="261" class="tf">country<tspan x="158.4" class="ty">varchar</tspan></text><text x="13" y="286" class="tf">currency<tspan x="158.4" class="ty">varchar</tspan></text><text x="13" y="311" class="tf">launched_date<tspan x="158.4" class="ty">varchar</tspan></text><text x="13" y="336" class="tf">end_date<tspan x="158.4" class="ty">varchar</tspan></text><text x="13" y="361" class="tf fk">category_id<tspan x="158.4" class="ty">varchar</tspan></text><text x="13" y="386" class="tf fk">subcategory_id<tspan x="158.4" class="ty">varchar</tspan></text></svg><svg width="187.4" height="100" x="466" y="467" id="h3105045969" class="t"><rect height="40" width="187.4" class="th"></rect><text x="13" y="25" class="tht">subcategory_db</text><rect height="60" width="187.4" class="t-bg"></rect><text x="13" y="61" class="tf pk">subcategory_id<tspan x="174.4" class="ty">varchar</tspan></text><path d="M7,14A2,2 0 0,1 5,12A2,2 0 0,1 7,10A2,2 0 0,1 9,12A2,2 0 0,1 7,14M12.65,10C11.83,7.67 9.61,6 7, 6A6, 6 0 0, 0 1, 12A6, 6 0 0, 0 7, 18C9.61, 18 11.83, 16.33 12.65, 14H17V18H21V14H23V10H12.65Z" class="i pk" transform="translate(114.386328125, 48) scale(0.65)"></path><text x="13" y="86" class="tf">subcategory<tspan x="174.4" class="ty">varchar</tspan></text></svg><svg width="168.05" height="100" x="463" y="223" id="h1474881139" class="t"><rect height="40" width="168.05" class="th"></rect><text x="13" y="25" class="tht">category_db</text><rect height="60" width="168.05" class="t-bg"></rect><text x="13" y="61" class="tf pk">category_id<tspan x="155.05" class="ty">varchar</tspan></text><path d="M7,14A2,2 0 0,1 5,12A2,2 0 0,1 7,10A2,2 0 0,1 9,12A2,2 0 0,1 7,14M12.65,10C11.83,7.67 9.61,6 7, 6A6, 6 0 0, 0 1, 12A6, 6 0 0, 0 7, 18C9.61, 18 11.83, 16.33 12.65, 14H17V18H21V14H23V10H12.65Z" class="i pk" transform="translate(95.03632812500001, 48) scale(0.65)"></path><text x="13" y="86" class="tf">category<tspan x="155.05" class="ty">varchar</tspan></text></svg></g></g><text class="qdbd-link" x="10" y="20">www.quickdatabasediagrams.com</text></svg>